<?xml version="1.0" standalone="no"?>
<!DOCTYPE svg PUBLIC "-//W3C//DTD SVG 20010904//EN"
 "http://www.w3.org/TR/2001/REC-SVG-20010904/DTD/svg10.dtd">
<svg version="1.0" xmlns="http://www.w3.org/2000/svg"
 width="640.000000pt" height="1280.000000pt" viewBox="0 0 640.000000 1280.000000"
 preserveAspectRatio="xMidYMid meet">
<metadata>
Created by potrace 1.15, written by Peter Selinger 2001-2017
</metadata>
<g transform="translate(0.000000,1280.000000) scale(0.100000,-0.100000)"
fill="#000000" stroke="none">
<path d="M3326 12788 c-7 -23 -59 -809 -54 -814 3 -2 35 -7 72 -11 l66 -6 0
54 c0 130 -32 718 -41 752 -10 36 -35 51 -43 25z"/>
<path d="M3254 11891 c-22 -10 -57 -33 -77 -50 -35 -31 -107 -122 -107 -135 0
-3 20 9 44 28 133 101 282 95 429 -17 l47 -37 0 44 c0 39 -5 50 -45 91 -85 87
-200 117 -291 76z"/>
<path d="M3103 11642 c-12 -4 -43 -24 -68 -45 -45 -38 -45 -38 -45 -102 0 -36
3 -65 6 -65 3 0 31 23 62 50 l56 50 212 0 c242 0 224 8 224 -100 0 -37 3 -82
6 -99 l7 -32 43 65 c24 35 48 67 53 70 5 4 13 31 17 62 l7 56 -49 49 -48 49
-231 -1 c-126 -1 -240 -4 -252 -7z"/>
<path d="M3328 11470 l-187 -5 104 -105 c57 -57 106 -102 108 -100 2 3 41 51
87 108 46 56 81 103 79 105 -2 1 -88 0 -191 -3z"/>
<path d="M3000 11292 c0 -83 3 -101 16 -106 19 -7 84 38 84 58 0 15 -75 132
-91 141 -5 4 -9 -35 -9 -93z"/>
<path d="M3612 11302 l-52 -88 6 -175 c4 -96 9 -169 10 -164 2 6 8 53 13 104
9 79 15 102 39 135 27 38 30 50 35 159 4 64 5 117 4 117 -1 0 -26 -40 -55 -88z"/>
<path d="M3332 11216 c-24 -7 -31 -13 -27 -25 71 -177 -26 -1937 -275 -5021
-16 -201 -32 -386 -35 -412 l-6 -48 265 0 264 0 -14 45 c-38 128 -70 478 -94
1035 -26 604 -33 1087 -39 2700 l-6 1736 -33 -10z"/>
<path d="M3089 11175 c-34 -22 -37 -29 -43 -87 -8 -82 -131 -1687 -151 -1977
-15 -227 -20 -271 -56 -576 -27 -237 -135 -1121 -164 -1350 -13 -104 -42 -336
-65 -515 -46 -363 -106 -816 -119 -900 -5 -30 -7 -57 -5 -59 4 -5 169 -30 197
-31 14 0 17 9 17 44 0 24 3 52 6 61 6 14 10 13 34 -10 l27 -26 102 106 c59 63
98 112 94 118 -4 7 -25 38 -46 69 l-40 57 -51 -36 c-28 -20 -61 -45 -73 -56
-28 -25 -37 -18 -28 23 5 21 20 39 46 57 42 28 43 25 -7 105 -22 34 -23 43
-16 124 l7 87 49 -72 c27 -39 50 -71 51 -71 1 0 39 40 84 90 l82 89 -62 90
-63 90 -62 -54 c-34 -30 -64 -55 -67 -55 -15 0 9 79 32 109 14 18 30 39 35 46
6 8 -1 27 -21 56 l-30 44 11 128 11 127 57 41 58 40 -50 62 -51 62 6 70 c13
154 10 146 75 190 33 22 59 42 59 45 0 3 -24 23 -54 45 -55 40 -55 40 -50 85
2 25 7 75 10 111 6 65 7 66 56 105 28 21 58 45 67 52 14 11 10 19 -41 70 -61
62 -65 74 -51 173 6 41 12 48 80 99 40 30 74 58 74 61 0 4 -29 32 -65 64 -70
61 -71 65 -58 160 6 44 11 51 64 89 32 22 58 45 58 50 1 5 -22 40 -50 78 -50
66 -51 71 -46 121 4 48 9 55 63 103 l59 52 -50 54 c-50 52 -50 54 -47 110 l4
57 59 38 c32 21 59 40 59 43 0 3 -22 28 -50 55 -42 42 -50 55 -50 86 0 57 14
82 69 124 l50 38 -50 60 c-29 35 -48 66 -45 74 4 8 6 27 6 43 0 22 9 34 45 57
l44 29 -37 54 c-34 49 -38 60 -34 105 4 46 8 53 49 84 l45 33 -40 42 c-36 37
-39 45 -35 83 4 36 12 48 44 71 l38 29 -34 49 c-29 42 -33 55 -28 90 5 36 10
44 46 61 l40 19 -36 41 c-51 56 -50 91 3 134 l40 33 -30 31 c-24 24 -30 40
-30 72 0 36 4 44 29 59 l30 18 -26 43 c-21 36 -24 52 -19 89 3 24 2 44 -2 44
-4 0 -24 -11 -43 -25z"/>
<path d="M3544 10825 c4 -61 11 -267 16 -460 32 -1129 51 -1778 60 -2065 6
-179 19 -620 30 -980 29 -947 49 -1519 56 -1567 l5 -43 145 0 c115 0 144 3
144 14 0 7 -25 296 -55 642 -134 1534 -348 3994 -381 4379 -8 98 -17 182 -20
184 -3 3 -3 -44 0 -104z"/>
<path d="M3028 8595 c-59 -49 -77 -76 -78 -112 0 -6 27 -33 61 -58 l60 -47 -6
83 c-6 73 -4 91 14 133 12 27 20 50 18 52 -2 2 -33 -21 -69 -51z"/>
<path d="M3003 8214 c-95 -71 -96 -86 -11 -171 l61 -62 29 17 c15 9 28 19 28
22 0 3 -20 20 -45 38 l-45 32 21 52 c37 92 48 128 41 127 -4 0 -40 -25 -79
-55z"/>
<path d="M2908 7819 c-14 -8 -18 -24 -18 -75 l0 -65 53 -50 52 -49 47 53 48
52 -58 10 -57 11 -14 62 c-15 63 -22 70 -53 51z"/>
<path d="M2870 7400 c-12 -7 -14 -22 -10 -72 5 -57 10 -69 49 -115 l43 -52 54
46 c30 26 54 50 54 55 0 4 -20 8 -44 8 -43 0 -44 0 -86 70 -23 39 -43 70 -44
70 0 0 -8 -5 -16 -10z"/>
<path d="M2838 6908 c-3 -76 0 -88 27 -140 16 -32 33 -57 36 -55 9 3 149 164
149 171 0 3 -27 6 -60 6 -63 0 -81 11 -118 73 -9 15 -19 27 -23 27 -4 0 -9
-37 -11 -82z"/>
<path d="M2307 5576 c-53 -13 -100 -26 -103 -29 -9 -8 7 -117 17 -117 5 0 43
20 85 45 l77 46 681 -11 c374 -6 776 -15 891 -19 193 -7 215 -10 276 -34 l66
-26 10 44 10 44 -81 29 -81 30 -530 6 c-291 3 -685 8 -875 11 -334 4 -348 4
-443 -19z"/>
<path d="M2319 5356 l16 -34 90 -6 c120 -7 647 -15 1248 -18 l487 -3 19 32 19
31 -171 6 c-191 7 -1375 26 -1588 26 l-136 0 16 -34z"/>
<path d="M2370 5250 c-11 -11 -20 -28 -20 -38 0 -36 -236 -710 -601 -1717 -83
-231 -154 -428 -156 -437 -5 -16 10 -17 166 -20 l171 -3 31 133 c31 130 33
135 89 203 l57 70 -20 99 c-15 71 -18 105 -11 121 9 20 11 19 41 -26 l31 -47
25 76 26 76 -47 32 c-51 36 -45 43 29 36 43 -4 40 -8 60 85 7 31 10 60 7 63
-3 2 -29 -9 -58 -26 -29 -17 -54 -29 -56 -28 -2 2 2 22 7 44 10 37 17 44 76
73 l65 32 -47 36 c-47 35 -47 36 -40 82 4 25 9 48 11 50 1 2 24 -15 50 -38 26
-23 48 -40 50 -39 1 2 9 30 18 63 17 67 16 70 -51 80 -38 5 -43 9 -43 31 0 19
4 24 18 20 9 -3 42 -8 73 -11 l56 -7 12 62 c7 34 10 64 8 66 -2 3 -39 -14 -81
-37 l-77 -41 7 28 c15 61 25 74 95 119 l73 47 -52 45 c-56 48 -57 50 -42 105
l10 36 57 -60 57 -59 12 33 c29 86 29 85 -29 92 -28 4 -62 9 -73 12 l-22 6 18
71 c10 40 21 84 24 100 6 26 8 27 76 27 l70 0 -25 50 -25 49 -35 -15 c-19 -8
-35 -11 -35 -7 0 5 7 41 17 80 l17 73 27 -32 27 -33 45 40 c25 22 46 43 46 46
1 3 -27 11 -61 17 -35 6 -64 16 -66 22 -6 17 -61 11 -82 -10z"/>
<path d="M2700 5228 c0 -10 53 -87 60 -88 3 0 25 20 49 44 l44 44 -77 4 c-42
1 -76 0 -76 -4z"/>
<path d="M3026 5180 c57 -58 54 -58 124 3 l44 37 -46 0 c-25 0 -74 3 -109 6
l-64 6 51 -52z"/>
<path d="M3993 5223 c-24 -2 -43 -7 -43 -11 0 -4 16 -47 34 -97 l34 -89 -20
-25 -19 -25 33 -12 33 -11 195 -584 c108 -321 251 -755 319 -964 68 -209 127
-384 131 -389 13 -14 140 14 140 30 0 8 -94 312 -209 677 -236 749 -372 1182
-429 1372 l-38 130 -60 1 c-32 0 -78 -1 -101 -3z"/>
<path d="M3171 5148 l-54 -50 50 -50 51 -51 7 64 c4 35 5 80 3 101 l-3 36 -54
-50z"/>
<path d="M3270 5091 l0 -104 48 44 c26 24 48 46 50 49 1 3 -20 30 -47 60 l-50
55 -1 -104z"/>
<path d="M2626 5103 c-3 -42 -5 -78 -3 -79 2 -2 23 14 47 35 l44 38 -34 41
c-18 23 -36 42 -40 42 -4 0 -10 -34 -14 -77z"/>
<path d="M2936 5169 c-5 -15 -26 -140 -26 -153 0 -4 25 10 55 31 30 21 55 40
54 43 0 3 -18 25 -39 49 -26 28 -41 39 -44 30z"/>
<path d="M3513 5130 l-42 -39 50 -42 49 -41 0 81 c0 45 -3 81 -7 81 -5 0 -27
-18 -50 -40z"/>
<path d="M2545 5127 l-38 -33 31 -42 30 -42 7 42 c3 24 9 58 12 76 3 17 3 32
1 32 -3 0 -22 -15 -43 -33z"/>
<path d="M2821 5126 l-32 -33 27 -32 c14 -18 29 -29 32 -26 9 8 19 125 12 125
-3 0 -21 -15 -39 -34z"/>
<path d="M2692 5027 c-23 -23 -42 -46 -42 -50 0 -4 32 -7 70 -7 39 0 70 2 70
5 0 10 -44 95 -50 95 -3 0 -25 -19 -48 -43z"/>
<path d="M3003 5027 c-28 -23 -52 -45 -52 -48 -1 -4 50 -7 112 -8 l112 -2 -50
51 c-27 27 -54 50 -60 49 -5 0 -33 -19 -62 -42z"/>
<path d="M3365 5009 l-56 -49 122 0 c67 0 120 2 118 4 -2 2 -32 25 -66 49
l-61 46 -57 -50z"/>
<path d="M3718 5006 c-16 -24 -28 -45 -28 -47 0 -2 34 -2 76 -1 l77 4 -44 44
c-24 24 -46 44 -49 44 -3 0 -17 -20 -32 -44z"/>
<path d="M2722 4721 l-12 -59 -91 -52 -91 -53 62 -62 c59 -60 63 -65 57 -100
-3 -21 -8 -39 -10 -42 -5 -4 -115 108 -129 130 -4 6 -9 9 -11 7 -7 -8 -47
-144 -43 -147 2 -2 42 -7 90 -10 53 -4 86 -10 86 -17 -1 -24 -29 -129 -37
-136 -4 -4 -51 -36 -103 -70 -52 -35 -97 -65 -99 -66 -2 -2 30 -37 71 -76 l76
-73 -30 -122 -30 -122 -119 -68 c-65 -38 -119 -70 -119 -73 0 -3 38 -43 83
-88 l84 -83 -34 -127 c-18 -70 -36 -140 -40 -155 l-6 -28 63 3 63 3 113 510
c179 809 267 1215 263 1219 -2 2 -24 6 -49 10 l-46 7 -12 -60z"/>
<path d="M2547 4743 c-3 -10 -8 -31 -12 -48 -3 -16 -8 -38 -11 -48 -4 -12 22
0 85 40 49 32 90 61 90 66 1 4 -32 7 -73 7 -63 0 -75 -3 -79 -17z"/>
<path d="M3840 4741 l-74 -6 87 -52 87 -52 0 59 c0 42 -4 59 -12 58 -7 -1 -47
-4 -88 -7z"/>
<path d="M3634 4723 c3 -10 98 -391 211 -848 113 -456 208 -838 211 -847 5
-16 21 -18 145 -18 76 0 139 2 139 5 0 2 -20 60 -44 128 l-44 125 26 26 26 26
-35 37 c-19 21 -45 50 -57 64 -17 20 -132 311 -132 335 0 2 18 -3 40 -12 23
-9 43 -15 45 -13 6 7 -39 199 -46 199 -4 0 -21 -21 -38 -47 l-31 -46 -15 36
c-21 52 -19 62 21 107 20 22 35 42 33 44 -2 2 -35 24 -73 49 -64 43 -72 51
-92 107 -12 33 -20 60 -17 60 2 0 40 -27 84 -60 43 -34 79 -57 79 -52 0 4 -9
36 -21 70 l-21 62 -69 0 c-38 0 -69 3 -69 8 0 4 -3 17 -6 30 -6 21 -4 22 60
22 44 0 66 4 66 12 0 13 -23 131 -26 136 -2 2 -31 -20 -65 -48 l-63 -53 -11
33 c-11 32 -9 34 47 88 32 30 55 59 52 63 -3 5 -47 32 -98 59 -72 39 -97 58
-106 81 -14 32 -44 49 -86 49 -20 0 -24 -4 -20 -17z"/>
<path d="M2891 4489 c-7 -72 -11 -132 -9 -134 1 -2 159 -7 349 -11 l346 -7 7
59 c3 32 9 80 12 107 4 29 2 47 -4 47 -12 0 -16 -12 -32 -92 l-11 -58 -294 0
-293 0 -6 28 c-3 15 -8 53 -12 85 l-6 57 213 1 214 2 -175 17 c-96 10 -200 21
-231 24 l-56 5 -12 -130z"/>
<path d="M3195 4265 c-170 -13 -311 -23 -312 -24 -2 0 -3 -10 -3 -20 0 -25 51
-29 433 -35 158 -2 290 -6 293 -9 3 -3 42 -255 87 -561 l82 -556 83 0 c75 0
84 2 80 18 -3 9 -76 286 -164 615 l-159 597 -55 -1 c-30 -1 -194 -12 -365 -24z"/>
<path d="M2821 4193 c-28 -121 -241 -1107 -241 -1114 0 -5 22 -9 49 -9 l48 0
22 73 c52 175 106 551 154 1065 5 50 -19 39 -32 -15z"/>
<path d="M2335 3948 c-13 -37 -92 -323 -90 -326 1 -1 48 24 105 55 l103 58 15
54 15 54 -54 49 c-69 62 -88 73 -94 56z"/>
<path d="M2122 3249 c-35 -94 -62 -173 -60 -174 6 -5 263 143 263 152 0 10
-128 193 -135 193 -3 0 -33 -77 -68 -171z"/>
<path d="M4340 3417 c0 -7 59 -178 65 -187 4 -6 30 2 67 21 33 17 57 34 52 39
-16 15 -174 130 -179 130 -3 0 -5 -1 -5 -3z"/>
<path d="M1189 2954 c18 -33 38 -64 45 -71 13 -14 3091 -29 3654 -17 303 6
344 9 349 23 2 9 11 31 19 50 8 18 13 35 11 37 -2 3 -573 9 -1268 14 -695 5
-1619 12 -2053 16 l-789 7 32 -59z"/>
<path d="M1140 2627 c0 -2 9 -48 21 -103 15 -72 20 -120 16 -176 -4 -66 -3
-78 11 -82 40 -12 204 -26 417 -36 303 -14 2470 -25 3127 -15 l516 7 4 157 c3
127 7 162 21 189 10 19 16 36 13 39 -9 9 -4146 29 -4146 20z"/>
<path d="M1058 2088 c-36 -51 -220 -320 -410 -598 -190 -278 -405 -590 -477
-695 l-132 -190 43 -38 c24 -21 54 -46 67 -55 23 -15 25 -15 45 11 11 14 115
174 230 354 315 493 488 755 524 791 59 60 233 380 232 426 -1 12 -14 36 -29
54 l-29 34 -64 -94z"/>
<path d="M1821 1998 l-162 -153 -262 -46 -262 -46 135 -6 c74 -4 205 -9 290
-12 l155 -6 137 211 c76 115 136 210 135 210 -2 0 -76 -69 -166 -152z"/>
<path d="M5301 2071 c-11 -7 54 -143 306 -642 177 -349 364 -719 417 -824 52
-104 100 -196 105 -204 7 -11 28 -3 109 42 54 31 105 63 111 71 10 12 -10 50
-113 208 -335 519 -894 1353 -906 1355 -8 2 -21 -1 -29 -6z"/>
<path d="M3048 1870 c-397 -47 -792 -219 -1194 -522 -324 -243 -701 -635 -966
-1003 -90 -126 -190 -276 -186 -280 2 -2 40 40 84 93 246 292 575 615 849 833
403 320 847 544 1230 618 228 44 491 44 709 0 288 -58 611 -217 886 -435 119
-94 378 -357 485 -492 139 -174 255 -341 361 -519 l97 -163 144 0 145 0 -23
38 c-12 20 -87 135 -166 255 -572 864 -1175 1369 -1832 1537 -172 44 -440 61
-623 40z"/>
<path d="M2022 1844 c-12 -8 -22 -26 -22 -40 0 -25 66 -134 82 -134 13 0 88
39 88 46 0 11 -54 99 -73 122 -24 26 -44 28 -75 6z"/>
<path d="M2216 1838 c-9 -12 -16 -32 -16 -45 0 -25 20 -73 30 -73 7 0 103 31
108 36 5 3 -28 67 -46 87 -21 24 -58 21 -76 -5z"/>
<path d="M2396 1828 c-34 -49 -16 -64 59 -48 60 12 70 29 33 54 -33 23 -74 20
-92 -6z"/>
<path d="M2580 1829 l-25 -20 50 6 c59 8 72 14 54 26 -23 14 -53 10 -79 -12z"/>
<path d="M4122 1833 c-16 -6 -42 -56 -42 -80 0 -13 85 -63 332 -196 182 -97
332 -176 334 -175 7 8 -437 359 -530 420 -59 38 -69 41 -94 31z"/>
<path d="M3936 1815 c-24 -18 -23 -19 42 -38 46 -14 52 -14 52 -1 0 49 -52 71
-94 39z"/>
<path d="M1852 1784 c-35 -24 -29 -66 20 -132 23 -31 44 -59 46 -62 3 -5 91
41 98 52 3 4 -15 38 -40 76 -54 85 -79 98 -124 66z"/>
<path d="M1217 1574 c-43 -53 -77 -97 -75 -98 2 -1 89 35 193 81 105 45 187
83 183 83 -11 0 -160 20 -193 25 -29 5 -36 -2 -108 -91z"/>
<path d="M1061 1620 c-51 -11 -95 -21 -97 -23 -4 -4 89 -156 96 -157 3 0 17
22 32 48 15 26 41 71 58 100 36 59 41 57 -89 32z"/>
<path d="M1748 1619 c-22 -13 -23 -57 -2 -87 l15 -22 50 27 c27 16 49 33 49
39 0 5 -9 20 -20 32 -22 23 -63 28 -92 11z"/>
<path d="M1412 1515 l-173 -83 73 -6 c40 -3 99 -7 130 -9 l57 -4 27 51 c15 28
38 70 51 94 14 23 21 42 16 41 -4 0 -86 -38 -181 -84z"/>
<path d="M4853 1458 c28 -52 51 -83 61 -82 9 0 73 2 144 3 140 3 138 8 -16 36
-100 18 -104 20 -161 72 -33 29 -62 53 -66 53 -4 0 14 -37 38 -82z"/>
<path d="M1646 1464 c-16 -15 -21 -34 -10 -34 3 0 22 11 42 25 36 25 36 25 10
25 -15 0 -34 -7 -42 -16z"/>
<path d="M1170 1335 c0 -17 133 -196 140 -188 4 4 33 44 64 88 l56 80 -37 6
c-68 12 -223 21 -223 14z"/>
<path d="M785 1194 l-140 -94 92 0 92 0 42 73 c23 39 49 82 57 95 8 12 10 22
6 21 -5 0 -72 -43 -149 -95z"/>
<path d="M1002 1194 c-35 -47 -62 -88 -59 -90 2 -3 61 -3 131 -2 l127 3 -62
88 c-34 48 -65 87 -68 87 -3 -1 -34 -39 -69 -86z"/>
<path d="M4990 1245 c68 -112 93 -146 99 -139 45 55 109 133 121 148 11 13 -5
9 -57 -17 l-71 -36 -58 41 -58 42 24 -39z"/>
<path d="M575 999 c-5 -6 40 -177 48 -185 2 -3 32 34 66 82 34 47 60 88 57 91
-8 8 -167 19 -171 12z"/>
<path d="M983 856 c-117 -51 -215 -94 -217 -97 -5 -5 294 0 310 5 13 5 138
186 127 185 -4 0 -104 -42 -220 -93z"/>
<path d="M5237 820 l55 -90 81 1 82 0 -67 27 c-47 19 -87 45 -134 90 -37 34
-68 62 -70 62 -2 0 22 -40 53 -90z"/>
<path d="M392 743 c-46 -63 -81 -117 -79 -119 6 -6 247 114 247 122 0 11 -72
114 -79 113 -3 0 -43 -52 -89 -116z"/>
<path d="M807 571 l76 -99 69 94 c37 52 68 97 68 99 0 3 -65 5 -145 5 l-145 0
77 -99z"/>
<path d="M480 580 c-74 -33 -128 -61 -120 -64 8 -2 96 -18 195 -35 99 -18 193
-34 209 -37 27 -6 24 -1 -48 95 -42 56 -82 101 -89 100 -7 -1 -73 -27 -147
-59z"/>
</g>
</svg>
